@startuml

title Architecture Diagram

skinparam linetype ortho
skinparam packageStyle rectangle
skinparam ClassBackgroundColor #FEFEFE
skinparam ClassBorderColor #000000
skinparam Padding 2

package SWAGroup12 {

    class EP_GameWindow {
        -mode : EP_GameMode
        -levelManager : EP_LevelManager
        -mainView : Morph
        -sideView : Morph
        -sideViewWidth : Number
    }

    abstract class EP_GameMode {
        -window : EP_GameWindow
    }

    class EP_MenuMode {
        -menuPage : EP_Menu
    }

    class EP_EditorMode {
        -level : EP_Level
        -sidebar : EP_EditorSidebar
    }

    class EP_PlayMode {
        -level : EP_Level
        -sidebar : EP_PlaySidebar
        -gameManager : EP_NotAGameManager
        -enemyWaveManager : EP_EnemyWaveManager
        -enemyWaveSpawner: EP_EnemyWaveSpawner
    }

    EP_GameMode <|-- EP_MenuMode
    EP_GameMode <|-- EP_EditorMode
    EP_GameMode <|-- EP_PlayMode

    EP_GameWindow *--> EP_GameMode
    EP_GameWindow *--> EP_LevelManager

    class EP_Level {
        -board : EP_Board
        -stages : EP_Stage[*]
    }

    class EP_Level_1 {}
    class EP_Level_2 {}

    EP_LevelManager *--> EP_Level

    class EP_Board {
        -tiles : Matrix of EP_Tile
        -manager: EP_PlayMode
        -towerPlacementPopUp : EP_TowerPlacementPopUp
        -enemies: EP_Enemy[*]
    }

    class EP_Tile {
        -board : EP_Board
    }

    class EP_EditorTile {}
    class EP_PlayTile {
        -tower : EP_Tower
        -towerInRange : EP_Tower[*]
    }

    EP_Tile <|-- EP_EditorTile
    EP_Tile <|-- EP_PlayTile

    EP_Level *--> EP_Board
    EP_Level *--> EP_Stage

    class EP_Stage {
        -waves : EP_EnemyWave[*]
    }

    class EP_Enemy {
        -gameManager : EP_NotAGameManager
        -enemyWaveManager : EP_EnemyWaveManager
        -enemyWave: EP_EnemyWave
        -board: EP_Board
        -towerInRange: EP_Tower[*]
    }

    class EP_EnemyWave {
        -enemyWaveManager : EP_EnemyWaveManager
    }

    class EP_EnemyWaveSpawner {
        -gameManager : EP_NotAGameManager
        -board : EP_Board
    }

    class EP_EnemyWaveManager {
        -level : EP_Level
        -enemyWaveSpawner : EP_EnemyWaveSpawner
    }

    EP_EnemyWaveManager *--> EP_EnemyWaveSpawner
    EP_EnemyWaveManager *--> EP_Level
    EP_EnemyWaveSpawner --> EP_Board
    EP_EnemyWaveSpawner --> EP_NotAGameManager
    EP_EnemyWaveSpawner --> EP_Enemy

    EP_EnemyWave --> EP_EnemyWaveManager
    EP_Enemy --> EP_NotAGameManager

    class EP_Tower {
        -tile : EP_Tile
        -board : EP_Board
        -enemiesInRange: EP_enemy[*]
    }

    class EP_Sidebar {
        -manager : EP_GameMode
    }

    class EP_EditorSidebar {}
    class EP_PlaySidebar {
        -enemyWaveManager : EP_EnemyWaveManager
        -gameManager : EP_NotAGameManager
        -board : EP_Board
    }

    EP_EditorSidebar --|> EP_Sidebar
    EP_PlaySidebar --|> EP_Sidebar

    class EP_Menu {
        -manager : EP_MenuMode
    }

    EP_MenuMode --> EP_Menu

    class EP_NotAGameManager {
    }

    EP_PlayMode --> EP_EnemyWaveManager
    EP_PlayMode --> EP_NotAGameManager

    EP_EditorMode --> EP_Level
    EP_EditorMode --> EP_EditorSidebar

    EP_PlayMode --> EP_Level
    EP_PlayMode --> EP_PlaySidebar

}

@enduml